<svg width="251" height="62" viewBox="0 0 251 62" fill="none" xmlns="http://www.w3.org/2000/svg">
<g clip-path="url(#clip0_6_1030)">
<path fill-rule="evenodd" clip-rule="evenodd" d="M0 0H251V62H0V0Z" fill="#5CCDDE"/>
<path d="M62.3345 42.4204C64.2504 42.4203 66.1914 41.9379 67.9722 40.9224C70.619 39.4131 72.5199 36.9611 73.3267 34.0132C74.1279 31.0865 73.7511 28.0312 72.2681 25.397L71.6665 25.7397C73.0578 28.2132 73.4122 31.0853 72.6606 33.8315C71.9032 36.5983 70.1162 38.9052 67.6304 40.3228C62.4896 43.2545 55.9226 41.4567 52.9907 36.3159V36.3149C50.0594 31.1736 51.8565 24.6068 56.9976 21.6753C59.9174 20.0105 63.3747 19.8096 66.4312 21.0854L67.605 21.5757L66.4019 21.9888L65.9351 22.1499L66.1597 22.8032L68.7778 21.9038L67.7739 19.3237L67.1304 19.5747L67.2085 19.7739L67.6138 20.8159L66.5776 20.3979C63.3565 19.0979 59.716 19.3307 56.6558 21.0757C54.0089 22.5847 52.108 25.0374 51.3013 27.9849C50.4944 30.9325 50.8809 34.0109 52.3901 36.6577C54.4942 40.3476 58.3596 42.4204 62.3345 42.4204Z" stroke="white" stroke-width="0.966996"/>
<mask id="path-3-inside-1_6_1030" fill="white">
<path d="M74.341 38.1267C74.3248 38.1537 74.3091 38.1808 74.2929 38.2076C74.1444 38.4535 73.9881 38.6955 73.8238 38.9334C73.8035 38.963 73.7829 38.9921 73.7621 39.0215C73.6952 39.117 73.627 39.2116 73.5574 39.3054C73.5389 39.3301 73.5208 39.3551 73.5024 39.3799C73.4157 39.4948 73.3274 39.6092 73.2368 39.7221C73.2217 39.7412 73.2059 39.7598 73.1906 39.7787C73.1144 39.8725 73.037 39.9659 72.9581 40.058C72.9317 40.0892 72.905 40.1201 72.878 40.1509C72.798 40.2432 72.7164 40.3345 72.6333 40.4251C72.6172 40.443 72.6012 40.461 72.5849 40.4788C72.4865 40.585 72.386 40.6897 72.2836 40.7934C72.2576 40.8198 72.2307 40.846 72.2045 40.8725C72.1245 40.9524 72.0434 41.0315 71.9609 41.11C71.9305 41.1387 71.9001 41.1679 71.8694 41.1966C71.7618 41.2971 71.6527 41.397 71.5413 41.4948C71.442 41.5822 71.3413 41.6674 71.2404 41.7516C71.2077 41.7786 71.1747 41.8046 71.142 41.8315C71.0726 41.8882 71.0027 41.9444 70.9324 41.9996C70.8942 42.0296 70.8558 42.0589 70.8172 42.0885C70.7507 42.1397 70.6836 42.1903 70.6164 42.24C70.5774 42.2687 70.5384 42.2975 70.4989 42.326C70.4291 42.3766 70.3588 42.4263 70.2883 42.4754C70.2522 42.5006 70.2161 42.526 70.1798 42.5505C70.0961 42.6078 70.0115 42.6636 69.9268 42.7188C69.9039 42.7337 69.881 42.7492 69.8582 42.7641C69.7472 42.835 69.6358 42.9045 69.5237 42.9725C69.5139 42.9781 69.504 42.9836 69.4941 42.9897C69.3932 43.0503 69.2917 43.1095 69.1893 43.1672C69.161 43.1835 69.132 43.1991 69.1033 43.215C69.0183 43.2624 68.9333 43.3086 68.8475 43.3539C68.8156 43.3709 68.7835 43.3875 68.7512 43.4042C68.666 43.4485 68.5802 43.4919 68.4944 43.5343C68.4648 43.5488 68.4356 43.5633 68.4061 43.5775C68.3096 43.6243 68.2124 43.6699 68.1151 43.7143C68.0972 43.7225 68.0794 43.7309 68.0613 43.7391C67.7005 43.9017 67.3341 44.0484 66.9636 44.1787C66.9535 44.182 66.9433 44.1856 66.9332 44.1891C66.8191 44.229 66.7047 44.2672 66.5902 44.3039C66.5786 44.3077 66.5671 44.3113 66.5557 44.3148C66.4355 44.353 66.3153 44.3895 66.1944 44.4243C66.1924 44.425 66.19 44.4254 66.1879 44.426C61.15 45.8735 55.5 44.4166 51.8129 40.2191C46.7059 34.4101 47.2804 25.5793 53.0758 20.4803C58.8779 15.3867 67.7236 15.9645 72.8171 21.7647C76.2658 25.6882 77.1187 31.0057 75.5113 35.6121C75.5029 35.6358 75.4945 35.6597 75.4861 35.6834C75.4429 35.8053 75.398 35.9264 75.3512 36.047C75.3456 36.0619 75.3403 36.0768 75.3342 36.0917C75.2807 36.2289 75.2251 36.3653 75.1672 36.5008C75.1624 36.5119 75.1574 36.5229 75.1525 36.5342C75.1007 36.6544 75.0468 36.7742 74.9916 36.8932C74.9792 36.9196 74.9669 36.9458 74.9547 36.9721C74.8959 37.0967 74.8353 37.2207 74.7728 37.3439C74.7705 37.3485 74.7682 37.3529 74.7659 37.3575C74.6996 37.4876 74.6307 37.6164 74.56 37.7448C74.5468 37.7683 74.5336 37.7916 74.5204 37.8151C74.4621 37.9196 74.4023 38.0234 74.341 38.1267ZM83.5507 32.8218C83.6178 31.9953 83.6461 31.1584 83.6167 30.3156C83.5937 29.4963 83.5154 28.6866 83.396 27.894L79.1771 27.1949L77.7471 23.2034L80.5583 19.9807C79.7057 18.562 78.691 17.2563 77.5444 16.0816L73.7191 18.002L70.2123 15.6173L70.5915 11.3512C69.137 10.7379 67.5989 10.277 66.0023 10L64.0149 13.7959L59.7734 13.8954L57.5951 10.2044C55.9647 10.5759 54.4064 11.129 52.9442 11.8478L53.5691 16.0843L50.1982 18.6629L46.2704 16.9672C45.1924 18.2013 44.252 19.5613 43.4792 21.0275L46.4684 24.0836L45.2643 28.148L41.0897 29.0886C41.0148 29.9295 40.9825 30.7891 41.0093 31.6624C41.0389 32.4594 41.1105 33.241 41.2185 34.0118L45.4393 34.7229L46.8562 38.719L44.0262 41.9341C44.8816 43.3539 45.8914 44.6738 47.0389 45.8517L50.8715 43.9437L54.3714 46.3385L53.9748 50.6054C55.4756 51.2405 57.0586 51.7186 58.7044 52L60.6806 48.1949L64.9213 48.0778L67.1071 51.7635C68.7363 51.3846 70.2923 50.8236 71.7534 50.1014L71.1162 45.8674L74.4757 43.2742L78.4076 44.9589C79.486 43.7167 80.4238 42.3541 81.1903 40.8894L78.1835 37.8455L79.3727 33.7689L83.5507 32.8218Z"/>
</mask>
<path d="M74.341 38.1267C74.3248 38.1537 74.3091 38.1808 74.2929 38.2076C74.1444 38.4535 73.9881 38.6955 73.8238 38.9334C73.8035 38.963 73.7829 38.9921 73.7621 39.0215C73.6952 39.117 73.627 39.2116 73.5574 39.3054C73.5389 39.3301 73.5208 39.3551 73.5024 39.3799C73.4157 39.4948 73.3274 39.6092 73.2368 39.7221C73.2217 39.7412 73.2059 39.7598 73.1906 39.7787C73.1144 39.8725 73.037 39.9659 72.9581 40.058C72.9317 40.0892 72.905 40.1201 72.878 40.1509C72.798 40.2432 72.7164 40.3345 72.6333 40.4251C72.6172 40.443 72.6012 40.461 72.5849 40.4788C72.4865 40.585 72.386 40.6897 72.2836 40.7934C72.2576 40.8198 72.2307 40.846 72.2045 40.8725C72.1245 40.9524 72.0434 41.0315 71.9609 41.11C71.9305 41.1387 71.9001 41.1679 71.8694 41.1966C71.7618 41.2971 71.6527 41.397 71.5413 41.4948C71.442 41.5822 71.3413 41.6674 71.2404 41.7516C71.2077 41.7786 71.1747 41.8046 71.142 41.8315C71.0726 41.8882 71.0027 41.9444 70.9324 41.9996C70.8942 42.0296 70.8558 42.0589 70.8172 42.0885C70.7507 42.1397 70.6836 42.1903 70.6164 42.24C70.5774 42.2687 70.5384 42.2975 70.4989 42.326C70.4291 42.3766 70.3588 42.4263 70.2883 42.4754C70.2522 42.5006 70.2161 42.526 70.1798 42.5505C70.0961 42.6078 70.0115 42.6636 69.9268 42.7188C69.9039 42.7337 69.881 42.7492 69.8582 42.7641C69.7472 42.835 69.6358 42.9045 69.5237 42.9725C69.5139 42.9781 69.504 42.9836 69.4941 42.9897C69.3932 43.0503 69.2917 43.1095 69.1893 43.1672C69.161 43.1835 69.132 43.1991 69.1033 43.215C69.0183 43.2624 68.9333 43.3086 68.8475 43.3539C68.8156 43.3709 68.7835 43.3875 68.7512 43.4042C68.666 43.4485 68.5802 43.4919 68.4944 43.5343C68.4648 43.5488 68.4356 43.5633 68.4061 43.5775C68.3096 43.6243 68.2124 43.6699 68.1151 43.7143C68.0972 43.7225 68.0794 43.7309 68.0613 43.7391C67.7005 43.9017 67.3341 44.0484 66.9636 44.1787C66.9535 44.182 66.9433 44.1856 66.9332 44.1891C66.8191 44.229 66.7047 44.2672 66.5902 44.3039C66.5786 44.3077 66.5671 44.3113 66.5557 44.3148C66.4355 44.353 66.3153 44.3895 66.1944 44.4243C66.1924 44.425 66.19 44.4254 66.1879 44.426C61.15 45.8735 55.5 44.4166 51.8129 40.2191C46.7059 34.4101 47.2804 25.5793 53.0758 20.4803C58.8779 15.3867 67.7236 15.9645 72.8171 21.7647C76.2658 25.6882 77.1187 31.0057 75.5113 35.6121C75.5029 35.6358 75.4945 35.6597 75.4861 35.6834C75.4429 35.8053 75.398 35.9264 75.3512 36.047C75.3456 36.0619 75.3403 36.0768 75.3342 36.0917C75.2807 36.2289 75.2251 36.3653 75.1672 36.5008C75.1624 36.5119 75.1574 36.5229 75.1525 36.5342C75.1007 36.6544 75.0468 36.7742 74.9916 36.8932C74.9792 36.9196 74.9669 36.9458 74.9547 36.9721C74.8959 37.0967 74.8353 37.2207 74.7728 37.3439C74.7705 37.3485 74.7682 37.3529 74.7659 37.3575C74.6996 37.4876 74.6307 37.6164 74.56 37.7448C74.5468 37.7683 74.5336 37.7916 74.5204 37.8151C74.4621 37.9196 74.4023 38.0234 74.341 38.1267ZM83.5507 32.8218C83.6178 31.9953 83.6461 31.1584 83.6167 30.3156C83.5937 29.4963 83.5154 28.6866 83.396 27.894L79.1771 27.1949L77.7471 23.2034L80.5583 19.9807C79.7057 18.562 78.691 17.2563 77.5444 16.0816L73.7191 18.002L70.2123 15.6173L70.5915 11.3512C69.137 10.7379 67.5989 10.277 66.0023 10L64.0149 13.7959L59.7734 13.8954L57.5951 10.2044C55.9647 10.5759 54.4064 11.129 52.9442 11.8478L53.5691 16.0843L50.1982 18.6629L46.2704 16.9672C45.1924 18.2013 44.252 19.5613 43.4792 21.0275L46.4684 24.0836L45.2643 28.148L41.0897 29.0886C41.0148 29.9295 40.9825 30.7891 41.0093 31.6624C41.0389 32.4594 41.1105 33.241 41.2185 34.0118L45.4393 34.7229L46.8562 38.719L44.0262 41.9341C44.8816 43.3539 45.8914 44.6738 47.0389 45.8517L50.8715 43.9437L54.3714 46.3385L53.9748 50.6054C55.4756 51.2405 57.0586 51.7186 58.7044 52L60.6806 48.1949L64.9213 48.0778L67.1071 51.7635C68.7363 51.3846 70.2923 50.8236 71.7534 50.1014L71.1162 45.8674L74.4757 43.2742L78.4076 44.9589C79.486 43.7167 80.4238 42.3541 81.1903 40.8894L78.1835 37.8455L79.3727 33.7689L83.5507 32.8218Z" stroke="white" stroke-width="1.93399" mask="url(#path-3-inside-1_6_1030)"/>
<path d="M62.3137 33.415C62.6202 33.415 62.8694 33.1661 62.8694 32.8594C62.8694 32.8513 62.8692 32.8398 62.8674 32.8193L62.8489 32.6025L62.9993 32.4443L68.467 26.7148V26.7139C68.5485 26.628 68.5445 26.4968 68.4612 26.417L68.4602 26.415C68.3905 26.348 68.28 26.3395 68.1975 26.3965L68.1643 26.4248L62.6946 32.1553L62.5481 32.3096L62.3352 32.3057C62.3247 32.3054 62.3158 32.305 62.3098 32.3047H62.3069C62.2744 32.3052 62.2406 32.3078 62.2063 32.3145L61.9944 32.3564L61.8225 32.2256L57.2424 28.7666C57.1508 28.7001 57.0218 28.7178 56.9534 28.8086L56.9524 28.8105L56.9309 28.8467C56.8899 28.9327 56.9126 29.0406 56.9934 29.1016L56.9944 29.1025L61.5706 32.5605L61.7434 32.6904L61.761 32.9062C61.7847 33.191 62.0239 33.4149 62.3137 33.415Z" fill="white" stroke="white" stroke-width="0.966996"/>
<path d="M98.251 26.2842C97.542 26.2842 96.9033 26.4072 96.335 26.6533C95.7725 26.8936 95.292 27.2451 94.8936 27.708C94.501 28.165 94.1992 28.7188 93.9883 29.3691C93.7773 30.0195 93.6719 30.752 93.6719 31.5664C93.6719 32.6445 93.8389 33.582 94.1729 34.3789C94.5127 35.1699 95.0166 35.7822 95.6846 36.2158C96.3584 36.6494 97.1992 36.8662 98.207 36.8662C98.7812 36.8662 99.3203 36.8193 99.8242 36.7256C100.334 36.626 100.829 36.5029 101.31 36.3564V37.6572C100.841 37.833 100.349 37.9619 99.833 38.0439C99.3174 38.1318 98.7051 38.1758 97.9961 38.1758C96.6895 38.1758 95.5967 37.9062 94.7178 37.3672C93.8447 36.8223 93.1885 36.0547 92.749 35.0645C92.3154 34.0742 92.0986 32.9053 92.0986 31.5576C92.0986 30.585 92.2334 29.6973 92.5029 28.8945C92.7783 28.0859 93.1768 27.3887 93.6982 26.8027C94.2256 26.2168 94.8701 25.7656 95.6318 25.4492C96.3994 25.127 97.2783 24.9658 98.2686 24.9658C98.9189 24.9658 99.5459 25.0303 100.149 25.1592C100.753 25.2881 101.298 25.4727 101.784 25.7129L101.187 26.9785C100.776 26.791 100.325 26.6299 99.833 26.4951C99.3467 26.3545 98.8193 26.2842 98.251 26.2842ZM104.096 38V25.1504H105.59V36.6641H111.294V38H104.096ZM124.645 31.5576C124.645 32.5479 124.519 33.4502 124.267 34.2646C124.015 35.0732 123.64 35.7705 123.142 36.3564C122.649 36.9365 122.037 37.3848 121.305 37.7012C120.572 38.0176 119.723 38.1758 118.756 38.1758C117.76 38.1758 116.89 38.0176 116.146 37.7012C115.407 37.3848 114.792 36.9336 114.3 36.3477C113.813 35.7617 113.447 35.0615 113.201 34.2471C112.961 33.4326 112.841 32.5303 112.841 31.54C112.841 30.2275 113.058 29.0762 113.491 28.0859C113.925 27.0957 114.581 26.3252 115.46 25.7744C116.345 25.2236 117.452 24.9482 118.782 24.9482C120.054 24.9482 121.123 25.2207 121.99 25.7656C122.863 26.3105 123.522 27.0781 123.968 28.0684C124.419 29.0527 124.645 30.2158 124.645 31.5576ZM114.414 31.5576C114.414 32.6475 114.569 33.5908 114.88 34.3877C115.19 35.1846 115.665 35.7998 116.304 36.2334C116.948 36.667 117.766 36.8838 118.756 36.8838C119.752 36.8838 120.566 36.667 121.199 36.2334C121.838 35.7998 122.31 35.1846 122.614 34.3877C122.919 33.5908 123.071 32.6475 123.071 31.5576C123.071 29.8994 122.723 28.6045 122.025 27.6729C121.334 26.7354 120.253 26.2666 118.782 26.2666C117.786 26.2666 116.966 26.4805 116.321 26.9082C115.677 27.3359 115.196 27.9453 114.88 28.7363C114.569 29.5215 114.414 30.4619 114.414 31.5576ZM133.003 26.2842C132.294 26.2842 131.655 26.4072 131.087 26.6533C130.524 26.8936 130.044 27.2451 129.646 27.708C129.253 28.165 128.951 28.7188 128.74 29.3691C128.529 30.0195 128.424 30.752 128.424 31.5664C128.424 32.6445 128.591 33.582 128.925 34.3789C129.265 35.1699 129.769 35.7822 130.437 36.2158C131.11 36.6494 131.951 36.8662 132.959 36.8662C133.533 36.8662 134.072 36.8193 134.576 36.7256C135.086 36.626 135.581 36.5029 136.062 36.3564V37.6572C135.593 37.833 135.101 37.9619 134.585 38.0439C134.069 38.1318 133.457 38.1758 132.748 38.1758C131.441 38.1758 130.349 37.9062 129.47 37.3672C128.597 36.8223 127.94 36.0547 127.501 35.0645C127.067 34.0742 126.851 32.9053 126.851 31.5576C126.851 30.585 126.985 29.6973 127.255 28.8945C127.53 28.0859 127.929 27.3887 128.45 26.8027C128.978 26.2168 129.622 25.7656 130.384 25.4492C131.151 25.127 132.03 24.9658 133.021 24.9658C133.671 24.9658 134.298 25.0303 134.901 25.1592C135.505 25.2881 136.05 25.4727 136.536 25.7129L135.938 26.9785C135.528 26.791 135.077 26.6299 134.585 26.4951C134.099 26.3545 133.571 26.2842 133.003 26.2842ZM148.111 38H146.345L141.713 31.751L140.342 32.9814V38H138.848V25.1504H140.342V31.5576C140.676 31.1768 141.019 30.7988 141.37 30.4238C141.722 30.043 142.07 29.6592 142.416 29.2725L146.169 25.1504H147.918L142.803 30.7227L148.111 38ZM169.671 25.1504L166.313 38H164.011L161.866 30.3008C161.813 30.1133 161.755 29.8906 161.69 29.6328C161.626 29.375 161.562 29.1113 161.497 28.8418C161.438 28.5723 161.386 28.3262 161.339 28.1035C161.298 27.875 161.269 27.6992 161.251 27.5762C161.239 27.6992 161.213 27.8721 161.172 28.0947C161.131 28.3174 161.081 28.5635 161.022 28.833C160.97 29.0967 160.911 29.3604 160.847 29.624C160.782 29.8818 160.724 30.1104 160.671 30.3096L158.562 38H156.268L152.919 25.1504H155.037L156.892 32.6826C156.95 32.9229 157.009 33.1836 157.067 33.4648C157.132 33.7402 157.19 34.0186 157.243 34.2998C157.302 34.5811 157.354 34.8564 157.401 35.126C157.448 35.3896 157.486 35.6299 157.516 35.8467C157.545 35.624 157.583 35.3779 157.63 35.1084C157.677 34.833 157.727 34.5547 157.779 34.2734C157.838 33.9863 157.896 33.7109 157.955 33.4473C158.02 33.1836 158.084 32.9463 158.148 32.7354L160.24 25.1504H162.297L164.433 32.7617C164.497 32.9785 164.559 33.2217 164.617 33.4912C164.682 33.7607 164.743 34.0361 164.802 34.3174C164.86 34.5986 164.913 34.8711 164.96 35.1348C165.007 35.3984 165.045 35.6357 165.074 35.8467C165.115 35.5596 165.168 35.2314 165.232 34.8623C165.297 34.4932 165.37 34.1182 165.452 33.7373C165.534 33.3564 165.616 33.0049 165.698 32.6826L167.544 25.1504H169.671ZM182.898 31.5576C182.898 32.5479 182.772 33.4502 182.521 34.2646C182.274 35.0732 181.902 35.7705 181.404 36.3564C180.906 36.9365 180.282 37.3848 179.532 37.7012C178.782 38.0176 177.903 38.1758 176.896 38.1758C175.87 38.1758 174.979 38.0176 174.224 37.7012C173.474 37.3848 172.85 36.9336 172.352 36.3477C171.859 35.7617 171.49 35.0615 171.244 34.2471C170.998 33.4326 170.875 32.5303 170.875 31.54C170.875 30.2158 171.092 29.0615 171.525 28.0771C171.965 27.0869 172.63 26.3193 173.521 25.7744C174.417 25.2236 175.548 24.9482 176.913 24.9482C178.249 24.9482 179.359 25.2207 180.244 25.7656C181.129 26.3105 181.791 27.0781 182.23 28.0684C182.676 29.0527 182.898 30.2158 182.898 31.5576ZM173.09 31.5576C173.09 32.5479 173.225 33.4062 173.494 34.1328C173.764 34.8535 174.177 35.4102 174.733 35.8027C175.296 36.1895 176.017 36.3828 176.896 36.3828C177.78 36.3828 178.501 36.1895 179.058 35.8027C179.614 35.4102 180.024 34.8535 180.288 34.1328C180.552 33.4062 180.684 32.5479 180.684 31.5576C180.684 30.0518 180.382 28.874 179.778 28.0244C179.181 27.1689 178.226 26.7412 176.913 26.7412C176.034 26.7412 175.311 26.9346 174.742 27.3213C174.18 27.708 173.764 28.2617 173.494 28.9824C173.225 29.6973 173.09 30.5557 173.09 31.5576ZM189.271 25.1504C190.378 25.1504 191.292 25.2852 192.013 25.5547C192.739 25.8242 193.278 26.2344 193.63 26.7852C193.987 27.3359 194.166 28.0361 194.166 28.8857C194.166 29.5186 194.049 30.0576 193.814 30.5029C193.58 30.9482 193.272 31.3174 192.892 31.6104C192.511 31.9033 192.104 32.1377 191.67 32.3135L195.317 38H192.936L189.833 32.8496H187.768V38H185.658V25.1504H189.271ZM189.13 26.9082H187.768V31.1094H189.227C190.205 31.1094 190.914 30.9277 191.354 30.5645C191.799 30.2012 192.021 29.665 192.021 28.9561C192.021 28.2119 191.784 27.6846 191.31 27.374C190.841 27.0635 190.114 26.9082 189.13 26.9082ZM206.954 38H204.528L200.529 32.1641L199.264 33.1924V38H197.154V25.1504H199.264V31.2939C199.521 30.9775 199.782 30.6611 200.046 30.3447C200.31 30.0283 200.573 29.7119 200.837 29.3955L204.458 25.1504H206.84L202.041 30.7754L206.954 38Z" fill="white"/>
</g>
<defs>
<clipPath id="clip0_6_1030">
<rect width="251" height="62" fill="white"/>
</clipPath>
</defs>
</svg>
