<?xml version="1.0" encoding="UTF-8"?>
<svg id="Layer_1" xmlns="http://www.w3.org/2000/svg" viewBox="0 0 321.9 200.48">
  <defs>
    <style>
      .cls-1 {
        fill: #018bcc;
      }

      .cls-1, .cls-2 {
        fill-rule: evenodd;
      }

      .cls-2 {
        fill: #37b7e4;
      }
    </style>
  </defs>
  <path class="cls-1" d="M200.73,0h69.89l51.28,59.33-17.09,127.33c-1.01,7.54-8.04,13.83-15.71,13.83h-115.39c-7.67,0-13.07-6.28-12.07-13.83l1.13-7.79h-43.24c-11.56,0-11.56-17.47,0-17.47,57.69,0-31.42,0,26.4,0,11.44,0,11.44-17.47,0-17.47h-78.43c-11.44,0-11.44-17.47,0-17.47h89.49c4.78,0,13.45.25,13.45-8.8,0-6.79-5.4-8.67-11.06-8.67h-62.47c-11.44,0-11.44-17.47,0-17.47h52.92c10.56,0,13.07-17.47-1.76-17.47H46.63c-11.44,0-11.56-17.47,0-17.47h182.13c11.56,0,11.56-17.47,0-17.47h-115.64c-11.44,0-11.44-17.47,0-17.47h70.77l1.01-7.79c1.01-7.54,8.17-13.83,15.84-13.83h0ZM238.94,152.72h-45.63c-8.92,0-10.68,13.45-1.76,13.45h45.63c8.92,0,10.68-13.45,1.76-13.45h0ZM8.67,126.45c11.44,0,11.44,17.47,0,17.47s-11.56-17.47,0-17.47h0ZM88.24,21.62c11.44,0,11.44,17.47,0,17.47s-11.56-17.47,0-17.47h0ZM37.46,126.45c11.56,0,11.56,17.47,0,17.47s-11.44-17.47,0-17.47h0ZM71.27,91.51c11.44,0,11.44,17.47,0,17.47s-11.44-17.47,0-17.47h0ZM202.87,86.73h87.73c8.8,0,7.04,13.58-1.89,13.58h-87.73c-8.8,0-7.04-13.58,1.89-13.58h0ZM198.34,120.29h87.73c8.8,0,7.04,13.45-1.89,13.45h-87.73c-8.8,0-7.04-13.45,1.89-13.45h0Z"/>
  <path class="cls-2" d="M321.9,59.33L270.62,0l-6.03,45.38c-1.13,7.67,4.4,13.95,11.94,13.95h45.38Z"/>
</svg>